# xmcd
#
# Track frame offsets: 
#        150
#        11051
#        24114
#        36110
#        49205
#        61242
#        75419
#        87531
#        102002
#        113166
#        126882
#        140760
#        153536
#        166902
#        180709
#        193433
#        205035
#        216412
#        226121
#        238918
#        250808
#        263443
#        275600
#        288144
#
# Disc length: 4013 seconds
#
# Revision: 0
# Processed by: cddbd v1.5.2PL0 Copyright (c) Steve Scherf et al.
# Submitted via: ExactAudioCopy v1.0b3
#
DISCID=500fab18
DTITLE=Gene Autry - A Cowboy's Serenade
DYEAR=2005
DGENRE=Western
TTITLE0=Blue Eyed Elaine  (1941)
TTITLE1=I Just Want You  (1939)
TTITLE2=It's A Shame We Didn't Talk It Over  (1946)
TTITLE3=I'll Never Smile Again  (1940)
TTITLE4=Same Old Fashioned Girl  (1944)
TTITLE5=Maria Elena  (1941)
TTITLE6=Sunflower  (1949)
TTITLE7=Riders In The Sky  (1949)
TTITLE8=Mule Train  (1949)
TTITLE9=A Cowboy's Serenade  (1949)
TTITLE10=The Old Rugged Cross  (1950)
TTITLE11=Goodnight Irene  (1952)
TTITLE12=Rose Coloured Memories  (1950)
TTITLE13=How Long Is Forever  (1951)
TTITLE14=Don't Believe A Word They Say  (1952)
TTITLE15=Roly Poly  (1953)
TTITLE16=Closing The Book  (1954)
TTITLE17=It's My Lazy Day  (1954)
TTITLE18=When He Grows Tiered Of You  (1954)
TTITLE19=20-20 Vision And Walking Roun Blind  (1954)
TTITLE20=In The Garden  (1950)
TTITLE21=Merry Texas Christmas All You  (1952)
TTITLE22=In The Valley Of The Moon  (1933)
TTITLE23=Dear Old Dad Of Mine  (1941)
EXTD=
EXTT0=
EXTT1=
EXTT2=
EXTT3=
EXTT4=
EXTT5=
EXTT6=
EXTT7=
EXTT8=
EXTT9=
EXTT10=
EXTT11=
EXTT12=
EXTT13=
EXTT14=
EXTT15=
EXTT16=
EXTT17=
EXTT18=
EXTT19=
EXTT20=
EXTT21=
EXTT22=
EXTT23=
PLAYORDER=
